<?xml version="1.0" encoding="UTF-8" standalone="no"?>
<svg width="128px" height="128px" viewBox="0 0 128 128" version="1.1" xmlns="http://www.w3.org/2000/svg" xmlns:xlink="http://www.w3.org/1999/xlink">
    <defs></defs>
    <g id="Page-1" stroke="none" stroke-width="1" fill="none" fill-rule="evenodd">
        <g id="Desktop" transform="translate(-81.000000, -55.000000)">
            <g id="V-1-Copy-2" transform="translate(45.000000, 20.000000)">
                <rect id="Mask-Copy" fill="#304048" x="36" y="35" width="128" height="128"></rect>
                <g id="Imported-Layers" transform="translate(53.000000, 55.000000)">
                    <path d="M0.169469552,70.363565 C-0.537629243,73.055372 1.03262726,75.8245298 3.67596142,76.5502208 L20,81 L8.68780034,38 L0.169469552,70.363565 Z" id="Fill-1" fill="#8FD86E"></path>
                    <path d="M27.4770995,83.3020883 C28.1958214,85.9612066 30.9383859,87.5408396 33.6043425,86.8295185 L52,81.9127892 L18,48 L27.4770995,83.3020883 Z" id="Fill-2" fill="#5DD0AD"></path>
                    <path d="M93.5260206,41.8423537 L54.1407486,2.45448977 C53.2131434,1.52698905 51.9496328,1.00562122 50.6383364,1 L23.7307593,1 C20.0147168,1 17,4.01437734 17,7.73000144 L17,34.6345489 C17,35.9456976 17.5214265,37.209066 18.4490317,38.142188 L57.8357092,77.5230254 C58.8237492,78.5109542 60.1139637,79 61.4041781,79 C62.6943926,79 63.984607,78.5053329 64.9726471,77.5230254 L93.5203987,48.9728668 C95.4922624,47.0012251 95.4922624,43.8069689 93.5260206,41.8423537 L93.5260206,41.8423537 Z M31.5816721,19.6202796 C28.672365,19.6202796 26.3111882,17.2593687 26.3111882,14.3503892 C26.3111882,11.4414096 28.672365,9.0804987 31.5816721,9.0804987 C34.4909792,9.0804987 36.852156,11.4414096 36.852156,14.3503892 C36.852156,17.2593687 34.4909792,19.6202796 31.5816721,19.6202796 L31.5816721,19.6202796 Z" id="Fill-3" fill="#2DC9DF"></path>
                    <circle id="Oval" fill="#304048" cx="76.5" cy="17.5" r="17.5"></circle>
                    <path d="M76.4909309,4.96603772 C69.5833279,4.96603772 63.982631,10.570277 63.982631,17.4830189 C63.982631,24.394991 69.5833279,30 76.4909309,30 C83.3993032,30 89,24.394991 89,17.4830189 C89,10.570277 83.40238,4.96603772 76.4909309,4.96603772 Z M82.3447014,19.5727744 L78.5824423,19.5727744 L78.5824423,23.3366434 C78.5824423,24.4912044 77.647839,25.4294777 76.4940078,25.4294777 C75.3401766,25.4294777 74.4024964,24.4942832 74.4024964,23.3366434 L74.4024964,19.5727744 L70.6410065,19.5727744 C69.4871753,19.5727744 68.5494951,18.6375799 68.5494951,17.47994 C68.5494951,16.325379 69.4840984,15.3871057 70.6410065,15.3871057 L74.4024964,15.3871057 L74.4024964,11.6232367 C74.4024964,10.4686757 75.3370997,9.53040238 76.4940078,9.53040238 C77.647839,9.53040238 78.5824423,10.4655968 78.5824423,11.6232367 L78.5824423,15.3871057 L82.3447014,15.3871057 C83.4985326,15.3871057 84.4354436,16.325379 84.4354436,17.47994 C84.4354436,18.6375799 83.4985326,19.5727744 82.3447014,19.5727744 Z" id="Fill-1-Copy" fill="#FFFFFF"></path>
                </g>
            </g>
        </g>
    </g>
</svg>